<svg width="96" height="112" viewBox="0 0 96 112" fill="none" xmlns="http://www.w3.org/2000/svg">
<path d="M52.0065 60.5197C50.9327 60.5187 49.8807 60.7473 48.8673 61.1468C48.282 60.2784 47.3424 59.6202 46.2094 59.4565C42.4553 58.8208 38.6522 58.5012 34.8421 58.5012C31.0531 58.5012 27.2632 58.8185 23.475 59.4565C21.7851 59.6997 20.4903 61.0491 20.2161 62.6085C19.7388 64.9198 19.5 67.2447 19.5 69.5679C19.5 71.8854 19.7388 74.2091 20.216 76.5269C20.4841 78.0581 21.7601 79.4698 23.5212 79.6833C27.3175 80.2199 31.1199 80.4988 34.9246 80.4988C38.6704 80.4988 42.4227 80.2327 46.1694 79.6831C47.9074 79.4684 49.2172 78.0785 49.4739 76.5058C49.9383 74.0835 50.1723 71.7135 50.1723 69.3941C50.1723 67.7562 50.0547 66.1465 49.8201 64.5645C50.595 64.2016 51.3131 64.0364 52.0062 64.0353C52.6991 64.0373 53.4214 64.2029 54.1998 64.567C53.9531 66.2235 53.8284 67.8954 53.8265 69.5696V69.5705C53.8279 71.9082 54.069 74.2398 54.5461 76.5305C54.8121 78.064 56.0913 79.4733 57.85 79.6879C61.6429 80.2222 65.4453 80.5 69.2523 80.5C72.9981 80.5 76.7493 80.235 80.4985 79.6854C82.2348 79.4695 83.545 78.0822 83.8017 76.5077C84.2635 74.0837 84.5 71.7138 84.5 69.393C84.5 67.0728 84.2672 64.8042 83.7962 62.5935C83.5132 61.0563 82.2334 59.7013 80.5371 59.4554C76.7832 58.822 72.9808 58.5023 69.1712 58.5H69.1709C65.3608 58.5 61.5576 58.8196 57.8035 59.4554C56.6784 59.618 55.7324 60.2733 55.1442 61.145C54.1296 60.7465 53.0795 60.5187 52.0065 60.5197ZM52.0065 60.5197C52.0067 60.5197 52.0068 60.5197 52.007 60.5197L52.0065 61.0197L52.006 60.5197C52.0061 60.5197 52.0063 60.5197 52.0065 60.5197ZM45.9704 63.329C45.8929 63.0704 45.8509 63.0194 45.8381 63.0065L45.8378 63.0062C45.8323 63.0005 45.8028 62.9706 45.5923 62.9169C42.0055 62.316 38.4242 62.0157 34.8421 62.0157L45.9704 63.329ZM45.9704 63.329C46.3901 65.2879 46.5965 67.3074 46.5965 69.393C46.5965 71.4749 46.3866 73.6232 45.9632 75.8406C45.8951 76.0826 45.8548 76.1285 45.8468 76.1366C45.8456 76.1377 45.8439 76.1393 45.84 76.1419C45.8357 76.1447 45.8267 76.15 45.8101 76.157C45.7759 76.1717 45.7221 76.1888 45.6305 76.2098C42.0632 76.7303 38.4958 76.9843 34.9246 76.9843C31.3011 76.9843 27.6754 76.7201 24.0448 76.2095C23.9588 76.1899 23.9103 76.1743 23.88 76.1613C23.8539 76.15 23.8494 76.1441 23.8489 76.1435C23.837 76.1313 23.7926 76.0757 23.717 75.8171C23.2919 73.7598 23.0772 71.6665 23.0758 69.5679C23.0758 67.4834 23.289 65.4016 23.717 63.3151C23.7905 63.065 23.8307 63.0185 23.8413 63.0079L23.8416 63.0076C23.8469 63.0022 23.8771 62.9719 24.0875 62.918C27.6394 62.3183 31.2374 62.0164 34.8421 62.0157L45.9704 63.329ZM69.2523 76.9843H69.2523C72.8359 76.9848 76.4146 76.7264 79.959 76.211C80.1495 76.1668 80.1743 76.1384 80.1758 76.1367L80.1759 76.1366C80.1844 76.128 80.2256 76.0812 80.2932 75.8409C80.7155 73.6188 80.9242 71.4704 80.9242 69.3895V69.3885C80.9282 67.3533 80.7191 65.323 80.3001 63.3292C80.2232 63.0729 80.1806 63.0206 80.167 63.0069L80.1667 63.0066C80.1604 63.0002 80.1304 62.97 79.9214 62.917C76.3333 62.316 72.7496 62.0157 69.171 62.0157L69.2523 76.9843ZM69.2523 76.9843C65.6274 76.9843 62.0018 76.7212 58.3738 76.2083C58.2876 76.1887 58.2387 76.1731 58.208 76.1599C58.1813 76.1484 58.1765 76.1423 58.176 76.1417C58.1647 76.1302 58.1203 76.0756 58.0459 75.8189M69.2523 76.9843L58.0459 75.8189M58.0459 75.8189C57.6199 73.7609 57.4044 71.6669 57.4024 69.5674C57.4024 67.4832 57.6167 65.4015 58.0458 63.3175C58.1197 63.0657 58.1598 63.0187 58.1706 63.0079L58.1709 63.0077C58.1761 63.0024 58.2067 62.9714 58.4219 62.9169C61.972 62.3178 65.5681 62.0163 69.1709 62.0157L58.0459 75.8189Z" fill="#F5F4E0" stroke="#F5F4E0"/>
<mask id="path-2-outside-1_67_122" maskUnits="userSpaceOnUse" x="0" y="0" width="96" height="112" fill="black">
<rect fill="white" width="96" height="112"/>
<path d="M87.9367 59.7362C92.2832 50.8489 94.2264 42.8837 94.2264 35.8706C94.2435 24.4075 89.0021 15.5629 81.132 9.74881C73.2607 3.91858 62.811 1.00231 52.1508 1C41.4437 1.00231 30.978 4.53599 23.1284 10.8844C15.2823 17.2235 10.0672 26.4617 10.0741 37.6478C10.0741 39.867 10.3007 42.1671 10.7264 44.5248C4.1586 48.145 0.993152 54.82 1.00002 61.2803C0.990863 67.9011 4.33484 74.4676 10.7859 77.4046C12.2828 80.2505 14.7662 82.2885 17.7806 82.6994C18.117 86.9474 18.9124 91.5821 20.4333 95.6316C22.5139 101.232 26.2538 106.001 32.2963 106.016C34.3712 106.012 36.636 105.441 39.1033 104.244C42.2894 107.9 46.8956 110.978 52.1668 111C57.4197 110.977 62.0134 107.907 65.1971 104.277C67.6416 105.454 69.8847 106.012 71.9412 106.016C77.9803 106.001 81.7202 101.231 83.803 95.6316C85.324 91.5832 86.1216 86.9497 86.4581 82.7017C91.4397 82.0277 94.9908 76.9222 95 71.0366C94.992 65.7546 92.1241 61.1222 87.9367 59.7362ZM3.49942 61.2803C3.50858 55.839 6.02858 50.3342 11.2803 47.1191C12.2714 51.1674 13.8804 55.3878 16.2333 59.7628C12.086 61.1788 9.25354 65.788 9.24553 71.0366C9.24667 71.9795 9.34853 72.8992 9.52362 73.789C5.58111 70.9558 3.50743 66.2162 3.49942 61.2803ZM13.9102 77.6597C12.5941 76.0059 11.7415 73.6575 11.7449 71.0366C11.7426 68.4169 12.5941 66.0662 13.9102 64.4159C14.9104 63.1649 16.1441 62.3351 17.4899 61.9981L17.578 62.1493V77.8686L17.5769 77.8743C17.5769 78.5933 17.5952 79.3457 17.6238 80.1155C16.2242 79.8004 14.9436 78.9522 13.9102 77.6597ZM84.1944 60.4333C84.1899 60.476 84.1704 60.5129 84.1704 60.5567C84.1704 60.6006 84.191 60.6364 84.1944 60.6779L84.1612 77.8686L84.1624 77.8743C84.1647 82.9129 83.4334 89.5336 81.4639 94.7326C79.4497 99.9939 76.4547 103.504 71.9412 103.491C70.1525 103.493 68.0158 102.944 65.4947 101.607C65.3586 101.531 65.2096 101.48 65.0552 101.458C64.9731 101.442 64.8895 101.435 64.8057 101.436C64.7806 101.438 64.7554 101.441 64.7302 101.445C64.5222 101.456 64.3206 101.522 64.1445 101.634C63.9685 101.747 63.8238 101.903 63.7243 102.087C63.7105 102.112 63.7128 102.14 63.7002 102.165C60.8346 105.634 56.5728 108.498 52.1668 108.476C47.6075 108.5 43.2106 105.453 40.3496 101.821C40.2474 101.691 40.1208 101.583 39.9772 101.503C39.8336 101.423 39.6757 101.373 39.5127 101.354C39.3496 101.336 39.1845 101.35 39.0269 101.396C38.8692 101.442 38.7222 101.519 38.5941 101.622C38.5586 101.65 38.5414 101.693 38.5094 101.724C36.0912 102.971 34.029 103.492 32.2952 103.489C27.7782 103.503 24.7844 99.9927 22.7691 94.7314C20.8018 89.5313 20.0706 82.9117 20.0751 77.8732V57.2712C20.2399 57.2735 20.4024 57.2793 20.5672 57.2793H20.6233C34.7477 57.2793 48.1659 48.8328 52.3156 35.0108C56.3142 48.8051 69.2232 57.2816 83.3224 57.2816H83.3888C83.6588 57.2816 83.9301 57.2735 84.2001 57.2666L84.1944 60.4333ZM85.4785 42.496C85.3143 42.4954 85.1516 42.5274 84.9997 42.5904C84.8478 42.6533 84.7098 42.7459 84.5935 42.8628C84.4771 42.9796 84.3848 43.1185 84.3219 43.2714C84.2589 43.4243 84.2265 43.5883 84.2265 43.7539L84.2047 54.7484C83.9312 54.7542 83.6554 54.7611 83.3876 54.7611C68.0227 54.7277 54.4763 44.2028 53.5836 27.5742C53.5802 27.5107 53.5504 27.4576 53.5378 27.3976C53.5207 27.3145 53.5092 27.2326 53.4749 27.1553C53.444 27.0802 53.3982 27.0156 53.3524 26.9487C53.3067 26.8817 53.2678 26.8171 53.2117 26.7606C53.1545 26.7029 53.0892 26.6613 53.0217 26.6163C52.9553 26.5713 52.8935 26.5251 52.818 26.494C52.7436 26.4617 52.6646 26.449 52.5845 26.4328C52.5227 26.4201 52.4678 26.389 52.4037 26.3855C52.3797 26.3843 52.3568 26.3959 52.3316 26.3959C52.3087 26.3959 52.2904 26.3855 52.2675 26.3867C52.2069 26.389 52.1554 26.419 52.0993 26.4305C52.0135 26.4478 51.9311 26.4605 51.8521 26.494C51.7766 26.5263 51.7136 26.5713 51.6461 26.6175C51.5809 26.6625 51.5168 26.7029 51.4607 26.7594C51.4024 26.8171 51.3612 26.8841 51.3165 26.9521C51.2719 27.0191 51.2273 27.0814 51.1964 27.1564C51.1643 27.2314 51.1517 27.311 51.1346 27.393C51.1208 27.4553 51.0911 27.5095 51.0876 27.5753C50.211 44.1612 35.9779 54.7357 20.5672 54.7623C20.4047 54.7623 20.2399 54.7565 20.0751 54.7542V43.7562C20.0751 43.4219 19.9435 43.1014 19.7091 42.8651C19.4747 42.6287 19.1569 42.496 18.8254 42.496C18.494 42.496 18.1761 42.6287 17.9418 42.8651C17.7074 43.1014 17.5757 43.4219 17.5757 43.7562V56.9169C14.0887 49.9361 12.5712 43.4746 12.5712 37.649C12.5781 27.2707 17.3423 18.815 24.6917 12.8532C32.0389 6.89947 41.985 3.51928 52.1485 3.52159C62.359 3.51928 72.3223 6.34207 79.6454 11.7799C86.9696 17.2351 91.7098 25.1945 91.7247 35.8729C91.7247 41.8658 90.198 48.7405 86.6984 56.4795L86.7224 43.7596C86.7236 43.5941 86.6924 43.43 86.6304 43.2767C86.5684 43.1235 86.477 42.9841 86.3613 42.8666C86.2457 42.7492 86.1082 42.6559 85.9566 42.5923C85.8051 42.5287 85.6426 42.496 85.4785 42.496ZM90.3354 77.6597C89.2997 78.9557 88.0168 79.805 86.6149 80.1166C86.6435 79.3469 86.6606 78.5956 86.6606 77.8755L86.6904 62.1932L86.7865 62.0062C88.1209 62.349 89.342 63.1741 90.3354 64.4159C91.6514 66.0685 92.504 68.4169 92.5006 71.0366C92.5029 73.6563 91.6514 76.0071 90.3354 77.6597Z"/>
</mask>
<path d="M87.9367 59.7362C92.2832 50.8489 94.2264 42.8837 94.2264 35.8706C94.2435 24.4075 89.0021 15.5629 81.132 9.74881C73.2607 3.91858 62.811 1.00231 52.1508 1C41.4437 1.00231 30.978 4.53599 23.1284 10.8844C15.2823 17.2235 10.0672 26.4617 10.0741 37.6478C10.0741 39.867 10.3007 42.1671 10.7264 44.5248C4.1586 48.145 0.993152 54.82 1.00002 61.2803C0.990863 67.9011 4.33484 74.4676 10.7859 77.4046C12.2828 80.2505 14.7662 82.2885 17.7806 82.6994C18.117 86.9474 18.9124 91.5821 20.4333 95.6316C22.5139 101.232 26.2538 106.001 32.2963 106.016C34.3712 106.012 36.636 105.441 39.1033 104.244C42.2894 107.9 46.8956 110.978 52.1668 111C57.4197 110.977 62.0134 107.907 65.1971 104.277C67.6416 105.454 69.8847 106.012 71.9412 106.016C77.9803 106.001 81.7202 101.231 83.803 95.6316C85.324 91.5832 86.1216 86.9497 86.4581 82.7017C91.4397 82.0277 94.9908 76.9222 95 71.0366C94.992 65.7546 92.1241 61.1222 87.9367 59.7362ZM3.49942 61.2803C3.50858 55.839 6.02858 50.3342 11.2803 47.1191C12.2714 51.1674 13.8804 55.3878 16.2333 59.7628C12.086 61.1788 9.25354 65.788 9.24553 71.0366C9.24667 71.9795 9.34853 72.8992 9.52362 73.789C5.58111 70.9558 3.50743 66.2162 3.49942 61.2803ZM13.9102 77.6597C12.5941 76.0059 11.7415 73.6575 11.7449 71.0366C11.7426 68.4169 12.5941 66.0662 13.9102 64.4159C14.9104 63.1649 16.1441 62.3351 17.4899 61.9981L17.578 62.1493V77.8686L17.5769 77.8743C17.5769 78.5933 17.5952 79.3457 17.6238 80.1155C16.2242 79.8004 14.9436 78.9522 13.9102 77.6597ZM84.1944 60.4333C84.1899 60.476 84.1704 60.5129 84.1704 60.5567C84.1704 60.6006 84.191 60.6364 84.1944 60.6779L84.1612 77.8686L84.1624 77.8743C84.1647 82.9129 83.4334 89.5336 81.4639 94.7326C79.4497 99.9939 76.4547 103.504 71.9412 103.491C70.1525 103.493 68.0158 102.944 65.4947 101.607C65.3586 101.531 65.2096 101.48 65.0552 101.458C64.9731 101.442 64.8895 101.435 64.8057 101.436C64.7806 101.438 64.7554 101.441 64.7302 101.445C64.5222 101.456 64.3206 101.522 64.1445 101.634C63.9685 101.747 63.8238 101.903 63.7243 102.087C63.7105 102.112 63.7128 102.14 63.7002 102.165C60.8346 105.634 56.5728 108.498 52.1668 108.476C47.6075 108.5 43.2106 105.453 40.3496 101.821C40.2474 101.691 40.1208 101.583 39.9772 101.503C39.8336 101.423 39.6757 101.373 39.5127 101.354C39.3496 101.336 39.1845 101.35 39.0269 101.396C38.8692 101.442 38.7222 101.519 38.5941 101.622C38.5586 101.65 38.5414 101.693 38.5094 101.724C36.0912 102.971 34.029 103.492 32.2952 103.489C27.7782 103.503 24.7844 99.9927 22.7691 94.7314C20.8018 89.5313 20.0706 82.9117 20.0751 77.8732V57.2712C20.2399 57.2735 20.4024 57.2793 20.5672 57.2793H20.6233C34.7477 57.2793 48.1659 48.8328 52.3156 35.0108C56.3142 48.8051 69.2232 57.2816 83.3224 57.2816H83.3888C83.6588 57.2816 83.9301 57.2735 84.2001 57.2666L84.1944 60.4333ZM85.4785 42.496C85.3143 42.4954 85.1516 42.5274 84.9997 42.5904C84.8478 42.6533 84.7098 42.7459 84.5935 42.8628C84.4771 42.9796 84.3848 43.1185 84.3219 43.2714C84.2589 43.4243 84.2265 43.5883 84.2265 43.7539L84.2047 54.7484C83.9312 54.7542 83.6554 54.7611 83.3876 54.7611C68.0227 54.7277 54.4763 44.2028 53.5836 27.5742C53.5802 27.5107 53.5504 27.4576 53.5378 27.3976C53.5207 27.3145 53.5092 27.2326 53.4749 27.1553C53.444 27.0802 53.3982 27.0156 53.3524 26.9487C53.3067 26.8817 53.2678 26.8171 53.2117 26.7606C53.1545 26.7029 53.0892 26.6613 53.0217 26.6163C52.9553 26.5713 52.8935 26.5251 52.818 26.494C52.7436 26.4617 52.6646 26.449 52.5845 26.4328C52.5227 26.4201 52.4678 26.389 52.4037 26.3855C52.3797 26.3843 52.3568 26.3959 52.3316 26.3959C52.3087 26.3959 52.2904 26.3855 52.2675 26.3867C52.2069 26.389 52.1554 26.419 52.0993 26.4305C52.0135 26.4478 51.9311 26.4605 51.8521 26.494C51.7766 26.5263 51.7136 26.5713 51.6461 26.6175C51.5809 26.6625 51.5168 26.7029 51.4607 26.7594C51.4024 26.8171 51.3612 26.8841 51.3165 26.9521C51.2719 27.0191 51.2273 27.0814 51.1964 27.1564C51.1643 27.2314 51.1517 27.311 51.1346 27.393C51.1208 27.4553 51.0911 27.5095 51.0876 27.5753C50.211 44.1612 35.9779 54.7357 20.5672 54.7623C20.4047 54.7623 20.2399 54.7565 20.0751 54.7542V43.7562C20.0751 43.4219 19.9435 43.1014 19.7091 42.8651C19.4747 42.6287 19.1569 42.496 18.8254 42.496C18.494 42.496 18.1761 42.6287 17.9418 42.8651C17.7074 43.1014 17.5757 43.4219 17.5757 43.7562V56.9169C14.0887 49.9361 12.5712 43.4746 12.5712 37.649C12.5781 27.2707 17.3423 18.815 24.6917 12.8532C32.0389 6.89947 41.985 3.51928 52.1485 3.52159C62.359 3.51928 72.3223 6.34207 79.6454 11.7799C86.9696 17.2351 91.7098 25.1945 91.7247 35.8729C91.7247 41.8658 90.198 48.7405 86.6984 56.4795L86.7224 43.7596C86.7236 43.5941 86.6924 43.43 86.6304 43.2767C86.5684 43.1235 86.477 42.9841 86.3613 42.8666C86.2457 42.7492 86.1082 42.6559 85.9566 42.5923C85.8051 42.5287 85.6426 42.496 85.4785 42.496ZM90.3354 77.6597C89.2997 78.9557 88.0168 79.805 86.6149 80.1166C86.6435 79.3469 86.6606 78.5956 86.6606 77.8755L86.6904 62.1932L86.7865 62.0062C88.1209 62.349 89.342 63.1741 90.3354 64.4159C91.6514 66.0685 92.504 68.4169 92.5006 71.0366C92.5029 73.6563 91.6514 76.0071 90.3354 77.6597Z" fill="#F5F4E0"/>
<path d="M87.9367 59.7362C92.2832 50.8489 94.2264 42.8837 94.2264 35.8706C94.2435 24.4075 89.0021 15.5629 81.132 9.74881C73.2607 3.91858 62.811 1.00231 52.1508 1C41.4437 1.00231 30.978 4.53599 23.1284 10.8844C15.2823 17.2235 10.0672 26.4617 10.0741 37.6478C10.0741 39.867 10.3007 42.1671 10.7264 44.5248C4.1586 48.145 0.993152 54.82 1.00002 61.2803C0.990863 67.9011 4.33484 74.4676 10.7859 77.4046C12.2828 80.2505 14.7662 82.2885 17.7806 82.6994C18.117 86.9474 18.9124 91.5821 20.4333 95.6316C22.5139 101.232 26.2538 106.001 32.2963 106.016C34.3712 106.012 36.636 105.441 39.1033 104.244C42.2894 107.9 46.8956 110.978 52.1668 111C57.4197 110.977 62.0134 107.907 65.1971 104.277C67.6416 105.454 69.8847 106.012 71.9412 106.016C77.9803 106.001 81.7202 101.231 83.803 95.6316C85.324 91.5832 86.1216 86.9497 86.4581 82.7017C91.4397 82.0277 94.9908 76.9222 95 71.0366C94.992 65.7546 92.1241 61.1222 87.9367 59.7362ZM3.49942 61.2803C3.50858 55.839 6.02858 50.3342 11.2803 47.1191C12.2714 51.1674 13.8804 55.3878 16.2333 59.7628C12.086 61.1788 9.25354 65.788 9.24553 71.0366C9.24667 71.9795 9.34853 72.8992 9.52362 73.789C5.58111 70.9558 3.50743 66.2162 3.49942 61.2803ZM13.9102 77.6597C12.5941 76.0059 11.7415 73.6575 11.7449 71.0366C11.7426 68.4169 12.5941 66.0662 13.9102 64.4159C14.9104 63.1649 16.1441 62.3351 17.4899 61.9981L17.578 62.1493V77.8686L17.5769 77.8743C17.5769 78.5933 17.5952 79.3457 17.6238 80.1155C16.2242 79.8004 14.9436 78.9522 13.9102 77.6597ZM84.1944 60.4333C84.1899 60.476 84.1704 60.5129 84.1704 60.5567C84.1704 60.6006 84.191 60.6364 84.1944 60.6779L84.1612 77.8686L84.1624 77.8743C84.1647 82.9129 83.4334 89.5336 81.4639 94.7326C79.4497 99.9939 76.4547 103.504 71.9412 103.491C70.1525 103.493 68.0158 102.944 65.4947 101.607C65.3586 101.531 65.2096 101.48 65.0552 101.458C64.9731 101.442 64.8895 101.435 64.8057 101.436C64.7806 101.438 64.7554 101.441 64.7302 101.445C64.5222 101.456 64.3206 101.522 64.1445 101.634C63.9685 101.747 63.8238 101.903 63.7243 102.087C63.7105 102.112 63.7128 102.14 63.7002 102.165C60.8346 105.634 56.5728 108.498 52.1668 108.476C47.6075 108.5 43.2106 105.453 40.3496 101.821C40.2474 101.691 40.1208 101.583 39.9772 101.503C39.8336 101.423 39.6757 101.373 39.5127 101.354C39.3496 101.336 39.1845 101.35 39.0269 101.396C38.8692 101.442 38.7222 101.519 38.5941 101.622C38.5586 101.65 38.5414 101.693 38.5094 101.724C36.0912 102.971 34.029 103.492 32.2952 103.489C27.7782 103.503 24.7844 99.9927 22.7691 94.7314C20.8018 89.5313 20.0706 82.9117 20.0751 77.8732V57.2712C20.2399 57.2735 20.4024 57.2793 20.5672 57.2793H20.6233C34.7477 57.2793 48.1659 48.8328 52.3156 35.0108C56.3142 48.8051 69.2232 57.2816 83.3224 57.2816H83.3888C83.6588 57.2816 83.9301 57.2735 84.2001 57.2666L84.1944 60.4333ZM85.4785 42.496C85.3143 42.4954 85.1516 42.5274 84.9997 42.5904C84.8478 42.6533 84.7098 42.7459 84.5935 42.8628C84.4771 42.9796 84.3848 43.1185 84.3219 43.2714C84.2589 43.4243 84.2265 43.5883 84.2265 43.7539L84.2047 54.7484C83.9312 54.7542 83.6554 54.7611 83.3876 54.7611C68.0227 54.7277 54.4763 44.2028 53.5836 27.5742C53.5802 27.5107 53.5504 27.4576 53.5378 27.3976C53.5207 27.3145 53.5092 27.2326 53.4749 27.1553C53.444 27.0802 53.3982 27.0156 53.3524 26.9487C53.3067 26.8817 53.2678 26.8171 53.2117 26.7606C53.1545 26.7029 53.0892 26.6613 53.0217 26.6163C52.9553 26.5713 52.8935 26.5251 52.818 26.494C52.7436 26.4617 52.6646 26.449 52.5845 26.4328C52.5227 26.4201 52.4678 26.389 52.4037 26.3855C52.3797 26.3843 52.3568 26.3959 52.3316 26.3959C52.3087 26.3959 52.2904 26.3855 52.2675 26.3867C52.2069 26.389 52.1554 26.419 52.0993 26.4305C52.0135 26.4478 51.9311 26.4605 51.8521 26.494C51.7766 26.5263 51.7136 26.5713 51.6461 26.6175C51.5809 26.6625 51.5168 26.7029 51.4607 26.7594C51.4024 26.8171 51.3612 26.8841 51.3165 26.9521C51.2719 27.0191 51.2273 27.0814 51.1964 27.1564C51.1643 27.2314 51.1517 27.311 51.1346 27.393C51.1208 27.4553 51.0911 27.5095 51.0876 27.5753C50.211 44.1612 35.9779 54.7357 20.5672 54.7623C20.4047 54.7623 20.2399 54.7565 20.0751 54.7542V43.7562C20.0751 43.4219 19.9435 43.1014 19.7091 42.8651C19.4747 42.6287 19.1569 42.496 18.8254 42.496C18.494 42.496 18.1761 42.6287 17.9418 42.8651C17.7074 43.1014 17.5757 43.4219 17.5757 43.7562V56.9169C14.0887 49.9361 12.5712 43.4746 12.5712 37.649C12.5781 27.2707 17.3423 18.815 24.6917 12.8532C32.0389 6.89947 41.985 3.51928 52.1485 3.52159C62.359 3.51928 72.3223 6.34207 79.6454 11.7799C86.9696 17.2351 91.7098 25.1945 91.7247 35.8729C91.7247 41.8658 90.198 48.7405 86.6984 56.4795L86.7224 43.7596C86.7236 43.5941 86.6924 43.43 86.6304 43.2767C86.5684 43.1235 86.477 42.9841 86.3613 42.8666C86.2457 42.7492 86.1082 42.6559 85.9566 42.5923C85.8051 42.5287 85.6426 42.496 85.4785 42.496ZM90.3354 77.6597C89.2997 78.9557 88.0168 79.805 86.6149 80.1166C86.6435 79.3469 86.6606 78.5956 86.6606 77.8755L86.6904 62.1932L86.7865 62.0062C88.1209 62.349 89.342 63.1741 90.3354 64.4159C91.6514 66.0685 92.504 68.4169 92.5006 71.0366C92.5029 73.6563 91.6514 76.0071 90.3354 77.6597Z" stroke="#F5F4E0" stroke-width="2" mask="url(#path-2-outside-1_67_122)"/>
</svg>
