<svg width="103" height="119" viewBox="0 0 103 119" fill="none" xmlns="http://www.w3.org/2000/svg">
<path d="M45.1513 100.177C47.8932 101.049 50.6905 101.499 53.4995 101.5H53.4996C56.5356 101.5 59.5565 100.973 62.5115 99.9579L62.5116 99.9579C62.8967 99.8255 63.2342 99.5814 63.3998 99.2295C63.5789 98.8489 63.5147 98.4259 63.2355 98.0941L63.2355 98.0941L63.2342 98.0925C62.9827 97.7962 62.6005 97.6176 62.2099 97.5434C61.8138 97.4681 61.3859 97.4944 61.0104 97.6235C58.4543 98.4993 55.9673 98.9185 53.4996 98.9207C51.0276 98.9185 48.5453 98.4993 45.9918 97.6223C45.8037 97.5574 45.6025 97.5185 45.3993 97.5052C45.1958 97.4919 44.9895 97.5042 44.7909 97.5421C44.5926 97.58 44.4003 97.6438 44.2263 97.7344C44.0529 97.8247 43.8932 97.9441 43.767 98.0943L44.1498 98.416L43.7691 98.0917C43.6411 98.242 43.5467 98.4242 43.5131 98.6299C43.4793 98.8377 43.5119 99.0437 43.599 99.2295C43.6847 99.4122 43.8172 99.5639 43.9703 99.6835C44.1235 99.8033 44.3015 99.8945 44.4893 99.9588L45.1513 100.185V100.177Z" fill="#F1F1F1" stroke="#F1F1F1"/>
<path d="M34.6886 103.666C34.5905 103.483 34.5293 103.283 34.5082 103.076C34.4871 102.87 34.5067 102.661 34.5659 102.462C34.625 102.263 34.7226 102.078 34.8531 101.916C34.9835 101.755 35.1442 101.621 35.3261 101.522C39.2754 99.3556 41.6507 96.0577 42.3585 90.8731L42.8539 90.9408M34.6886 103.666C34.7865 103.849 34.9193 104.011 35.0797 104.142C35.2402 104.274 35.4251 104.373 35.6239 104.433C35.8227 104.493 36.0313 104.513 36.2379 104.492C36.444 104.471 36.6438 104.409 36.826 104.311C41.6255 101.732 44.709 97.3428 45.4864 91.2915C45.5135 91.086 45.5001 90.8771 45.447 90.6768C45.3938 90.4761 45.3019 90.2877 45.1762 90.1225C45.0505 89.9573 44.8935 89.8184 44.7142 89.714C44.5348 89.6095 44.3366 89.5414 44.1308 89.5139C43.9251 89.4864 43.7159 89.4998 43.5154 89.5536C43.3149 89.6073 43.127 89.7001 42.9625 89.8267C42.798 89.9533 42.66 90.1111 42.5564 90.291C42.4528 90.4708 42.3855 90.6693 42.3582 90.8751L42.8539 90.9408M34.6886 103.666C34.6885 103.665 34.6884 103.665 34.6884 103.665L35.1293 103.429M34.6886 103.666L35.1293 103.429M34.6886 103.666C34.6887 103.666 34.6887 103.666 34.6888 103.666L35.1293 103.429M34.6886 103.666L35.1293 103.429M42.8539 90.9408C42.1255 96.276 39.6602 99.7151 35.5657 101.961L44.9906 91.2268C45.0093 91.0857 45.0001 90.9423 44.9637 90.8048C44.9272 90.6673 44.8642 90.5383 44.7782 90.4253C44.6922 90.3122 44.5849 90.2173 44.4625 90.146C44.34 90.0747 44.2048 90.0283 44.0645 90.0095C43.9242 89.9907 43.7816 89.9999 43.6448 90.0365C43.508 90.0732 43.3798 90.1365 43.2674 90.223C43.155 90.3095 43.0606 90.4174 42.9896 90.5405C42.9187 90.6637 42.8726 90.7997 42.8539 90.9408Z" fill="#F1F1F1" stroke="#F1F1F1"/>
<path d="M71.9185 104.5C72.2701 104.501 72.6117 104.384 72.8892 104.168C73.1669 103.952 73.3644 103.649 73.4511 103.308C73.5377 102.967 73.5087 102.606 73.3685 102.284C73.2284 101.961 72.985 101.694 72.6763 101.525C68.7242 99.3566 66.3509 96.0578 65.6408 90.8733C65.5855 90.4584 65.3686 90.0818 65.0368 89.8266C64.7046 89.5711 64.2845 89.4583 63.8691 89.5139L63.869 89.5139C63.663 89.5414 63.4644 89.6096 63.2848 89.7144C63.1052 89.8192 62.9481 89.9585 62.8225 90.1241C62.6968 90.2898 62.605 90.4786 62.5521 90.6797C62.4993 90.8809 62.4865 91.0904 62.5143 91.2965L62.5146 91.2965C63.2939 97.3453 66.3767 101.733 71.1734 104.311C71.4024 104.435 71.6583 104.5 71.9185 104.5ZM71.9185 104.5C71.9182 104.5 71.9178 104.5 71.9175 104.5L71.9191 104L71.9186 104.5C71.9185 104.5 71.9185 104.5 71.9185 104.5Z" fill="#F1F1F1" stroke="#F1F1F1"/>
<path d="M54.0065 64.5197C52.9327 64.5187 51.8807 64.7473 50.8673 65.1468C50.282 64.2784 49.3424 63.6202 48.2094 63.4565C44.4553 62.8208 40.6522 62.5012 36.8421 62.5012C33.0531 62.5012 29.2632 62.8185 25.475 63.4565C23.7851 63.6997 22.4903 65.0491 22.2161 66.6085C21.7388 68.9198 21.5 71.2447 21.5 73.5679C21.5 75.8854 21.7388 78.2091 22.216 80.5269C22.4841 82.0581 23.7601 83.4698 25.5212 83.6833C29.3175 84.2199 33.1199 84.4988 36.9246 84.4988C40.6704 84.4988 44.4227 84.2327 48.1694 83.6831C49.9074 83.4684 51.2172 82.0785 51.4739 80.5058C51.9383 78.0835 52.1723 75.7135 52.1723 73.3941C52.1723 71.7562 52.0547 70.1465 51.8201 68.5645C52.595 68.2016 53.3131 68.0364 54.0062 68.0353C54.6991 68.0373 55.4214 68.2029 56.1998 68.567C55.9531 70.2235 55.8284 71.8954 55.8265 73.5696V73.5705C55.8279 75.9082 56.069 78.2398 56.5461 80.5305C56.8121 82.064 58.0913 83.4733 59.85 83.6879C63.6429 84.2222 67.4453 84.5 71.2523 84.5C74.9981 84.5 78.7493 84.235 82.4985 83.6854C84.2348 83.4695 85.545 82.0822 85.8017 80.5077C86.2635 78.0837 86.5 75.7138 86.5 73.393C86.5 71.0728 86.2672 68.8042 85.7962 66.5935C85.5132 65.0563 84.2334 63.7013 82.5371 63.4554C78.7832 62.822 74.9808 62.5023 71.1712 62.5H71.1709C67.3608 62.5 63.5576 62.8196 59.8035 63.4554C58.6784 63.618 57.7324 64.2733 57.1442 65.145C56.1296 64.7465 55.0795 64.5187 54.0065 64.5197ZM54.0065 64.5197C54.0067 64.5197 54.0068 64.5197 54.007 64.5197L54.0065 65.0197L54.006 64.5197C54.0061 64.5197 54.0063 64.5197 54.0065 64.5197ZM47.9704 67.329C47.8929 67.0704 47.8509 67.0194 47.8381 67.0065L47.8378 67.0062C47.8323 67.0005 47.8028 66.9706 47.5923 66.9169C44.0055 66.316 40.4242 66.0157 36.8421 66.0157L47.9704 67.329ZM47.9704 67.329C48.3901 69.2879 48.5965 71.3074 48.5965 73.393C48.5965 75.4749 48.3866 77.6232 47.9632 79.8406C47.8951 80.0826 47.8548 80.1285 47.8468 80.1366C47.8456 80.1377 47.8439 80.1393 47.84 80.1419C47.8357 80.1447 47.8267 80.15 47.8101 80.157C47.7759 80.1717 47.7221 80.1888 47.6305 80.2098C44.0632 80.7303 40.4958 80.9843 36.9246 80.9843C33.3011 80.9843 29.6754 80.7201 26.0448 80.2095C25.9588 80.1899 25.9103 80.1743 25.88 80.1613C25.8539 80.15 25.8494 80.1441 25.8489 80.1435C25.837 80.1313 25.7926 80.0757 25.717 79.8171C25.2919 77.7598 25.0772 75.6665 25.0758 73.5679C25.0758 71.4834 25.289 69.4016 25.717 67.3151C25.7905 67.065 25.8307 67.0185 25.8413 67.0079L25.8416 67.0076C25.8469 67.0022 25.8771 66.9719 26.0875 66.918C29.6394 66.3183 33.2374 66.0164 36.8421 66.0157L47.9704 67.329ZM71.2523 80.9843H71.2523C74.8359 80.9848 78.4146 80.7264 81.959 80.211C82.1495 80.1668 82.1743 80.1384 82.1758 80.1367L82.1759 80.1366C82.1844 80.128 82.2256 80.0812 82.2932 79.8409C82.7155 77.6188 82.9242 75.4704 82.9242 73.3895V73.3885C82.9282 71.3533 82.7191 69.323 82.3001 67.3292C82.2232 67.0729 82.1806 67.0206 82.167 67.0069L82.1667 67.0066C82.1604 67.0002 82.1304 66.97 81.9214 66.917C78.3333 66.316 74.7496 66.0157 71.171 66.0157L71.2523 80.9843ZM71.2523 80.9843C67.6274 80.9843 64.0018 80.7212 60.3738 80.2083C60.2876 80.1887 60.2387 80.1731 60.208 80.1599C60.1813 80.1484 60.1765 80.1423 60.176 80.1417C60.1647 80.1302 60.1203 80.0756 60.0459 79.8189M71.2523 80.9843L60.0459 79.8189M60.0459 79.8189C59.6199 77.7609 59.4044 75.6669 59.4024 73.5674C59.4024 71.4832 59.6167 69.4015 60.0458 67.3175C60.1197 67.0657 60.1598 67.0187 60.1706 67.0079L60.1709 67.0077C60.1761 67.0024 60.2067 66.9714 60.4219 66.9169C63.972 66.3178 67.5681 66.0163 71.1709 66.0157L60.0459 79.8189Z" fill="#F1F1F1" stroke="#F1F1F1"/>
<mask id="path-5-outside-1_67_105" maskUnits="userSpaceOnUse" x="2" y="4" width="96" height="112" fill="black">
<rect fill="white" x="2" y="4" width="96" height="112"/>
<path d="M89.9367 63.7362C94.2832 54.8489 96.2264 46.8837 96.2264 39.8706C96.2435 28.4075 91.0021 19.5629 83.132 13.7488C75.2607 7.91858 64.811 5.00231 54.1508 5C43.4437 5.00231 32.978 8.53599 25.1284 14.8844C17.2823 21.2235 12.0672 30.4617 12.0741 41.6478C12.0741 43.867 12.3007 46.1671 12.7264 48.5248C6.1586 52.145 2.99315 58.82 3.00002 65.2803C2.99086 71.9011 6.33484 78.4676 12.7859 81.4046C14.2828 84.2505 16.7662 86.2885 19.7806 86.6994C20.117 90.9474 20.9124 95.5821 22.4333 99.6316C24.5139 105.232 28.2538 110.001 34.2963 110.016C36.3712 110.012 38.636 109.441 41.1033 108.244C44.2894 111.9 48.8956 114.978 54.1668 115C59.4197 114.977 64.0134 111.907 67.1971 108.277C69.6416 109.454 71.8847 110.012 73.9412 110.016C79.9803 110.001 83.7202 105.231 85.803 99.6316C87.324 95.5832 88.1216 90.9497 88.4581 86.7017C93.4397 86.0277 96.9908 80.9222 97 75.0366C96.992 69.7546 94.1241 65.1222 89.9367 63.7362ZM5.49942 65.2803C5.50858 59.839 8.02858 54.3342 13.2803 51.1191C14.2714 55.1674 15.8804 59.3878 18.2333 63.7628C14.086 65.1788 11.2535 69.788 11.2455 75.0366C11.2467 75.9795 11.3485 76.8992 11.5236 77.789C7.58111 74.9558 5.50743 70.2162 5.49942 65.2803ZM15.9102 81.6597C14.5941 80.0059 13.7415 77.6575 13.7449 75.0366C13.7426 72.4169 14.5941 70.0662 15.9102 68.4159C16.9104 67.1649 18.1441 66.3351 19.4899 65.9981L19.578 66.1493V81.8686L19.5769 81.8743C19.5769 82.5933 19.5952 83.3457 19.6238 84.1155C18.2242 83.8004 16.9436 82.9522 15.9102 81.6597ZM86.1944 64.4333C86.1899 64.476 86.1704 64.5129 86.1704 64.5567C86.1704 64.6006 86.191 64.6364 86.1944 64.6779L86.1612 81.8686L86.1624 81.8743C86.1647 86.9129 85.4334 93.5336 83.4639 98.7326C81.4497 103.994 78.4547 107.504 73.9412 107.491C72.1525 107.493 70.0158 106.944 67.4947 105.607C67.3586 105.531 67.2096 105.48 67.0552 105.458C66.9731 105.442 66.8895 105.435 66.8057 105.436C66.7806 105.438 66.7554 105.441 66.7302 105.445C66.5222 105.456 66.3206 105.522 66.1445 105.634C65.9685 105.747 65.8238 105.903 65.7243 106.087C65.7105 106.112 65.7128 106.14 65.7002 106.165C62.8346 109.634 58.5728 112.498 54.1668 112.476C49.6075 112.5 45.2106 109.453 42.3496 105.821C42.2474 105.691 42.1208 105.583 41.9772 105.503C41.8336 105.423 41.6757 105.373 41.5127 105.354C41.3496 105.336 41.1845 105.35 41.0269 105.396C40.8692 105.442 40.7222 105.519 40.5941 105.622C40.5586 105.65 40.5414 105.693 40.5094 105.724C38.0912 106.971 36.029 107.492 34.2952 107.489C29.7782 107.503 26.7844 103.993 24.7691 98.7314C22.8018 93.5313 22.0706 86.9117 22.0751 81.8732V61.2712C22.2399 61.2735 22.4024 61.2793 22.5672 61.2793H22.6233C36.7477 61.2793 50.1659 52.8328 54.3156 39.0108C58.3142 52.8051 71.2232 61.2816 85.3224 61.2816H85.3888C85.6588 61.2816 85.9301 61.2735 86.2001 61.2666L86.1944 64.4333ZM87.4785 46.496C87.3143 46.4954 87.1516 46.5274 86.9997 46.5904C86.8478 46.6533 86.7098 46.7459 86.5935 46.8628C86.4771 46.9796 86.3848 47.1185 86.3219 47.2714C86.2589 47.4243 86.2265 47.5883 86.2265 47.7539L86.2047 58.7484C85.9312 58.7542 85.6554 58.7611 85.3876 58.7611C70.0227 58.7277 56.4763 48.2028 55.5836 31.5742C55.5802 31.5107 55.5504 31.4576 55.5378 31.3976C55.5207 31.3145 55.5092 31.2326 55.4749 31.1553C55.444 31.0802 55.3982 31.0156 55.3524 30.9487C55.3067 30.8817 55.2678 30.8171 55.2117 30.7606C55.1545 30.7029 55.0892 30.6613 55.0217 30.6163C54.9553 30.5713 54.8935 30.5251 54.818 30.494C54.7436 30.4617 54.6646 30.449 54.5845 30.4328C54.5227 30.4201 54.4678 30.389 54.4037 30.3855C54.3797 30.3843 54.3568 30.3959 54.3316 30.3959C54.3087 30.3959 54.2904 30.3855 54.2675 30.3867C54.2069 30.389 54.1554 30.419 54.0993 30.4305C54.0135 30.4478 53.9311 30.4605 53.8521 30.494C53.7766 30.5263 53.7136 30.5713 53.6461 30.6175C53.5809 30.6625 53.5168 30.7029 53.4607 30.7594C53.4024 30.8171 53.3612 30.8841 53.3165 30.9521C53.2719 31.0191 53.2273 31.0814 53.1964 31.1564C53.1643 31.2314 53.1517 31.311 53.1346 31.393C53.1208 31.4553 53.0911 31.5095 53.0876 31.5753C52.211 48.1612 37.9779 58.7357 22.5672 58.7623C22.4047 58.7623 22.2399 58.7565 22.0751 58.7542V47.7562C22.0751 47.4219 21.9435 47.1014 21.7091 46.8651C21.4747 46.6287 21.1569 46.496 20.8254 46.496C20.494 46.496 20.1761 46.6287 19.9418 46.8651C19.7074 47.1014 19.5757 47.4219 19.5757 47.7562V60.9169C16.0887 53.9361 14.5712 47.4746 14.5712 41.649C14.5781 31.2707 19.3423 22.815 26.6917 16.8532C34.0389 10.8995 43.985 7.51928 54.1485 7.52159C64.359 7.51928 74.3223 10.3421 81.6454 15.7799C88.9696 21.2351 93.7098 29.1945 93.7247 39.8729C93.7247 45.8658 92.198 52.7405 88.6984 60.4795L88.7224 47.7596C88.7236 47.5941 88.6924 47.43 88.6304 47.2767C88.5684 47.1235 88.477 46.9841 88.3613 46.8666C88.2457 46.7492 88.1082 46.6559 87.9566 46.5923C87.8051 46.5287 87.6426 46.496 87.4785 46.496ZM92.3354 81.6597C91.2997 82.9557 90.0168 83.805 88.6149 84.1166C88.6435 83.3469 88.6606 82.5956 88.6606 81.8755L88.6904 66.1932L88.7865 66.0062C90.1209 66.349 91.342 67.1741 92.3354 68.4159C93.6514 70.0685 94.504 72.4169 94.5006 75.0366C94.5029 77.6563 93.6514 80.0071 92.3354 81.6597Z"/>
</mask>
<path d="M89.9367 63.7362C94.2832 54.8489 96.2264 46.8837 96.2264 39.8706C96.2435 28.4075 91.0021 19.5629 83.132 13.7488C75.2607 7.91858 64.811 5.00231 54.1508 5C43.4437 5.00231 32.978 8.53599 25.1284 14.8844C17.2823 21.2235 12.0672 30.4617 12.0741 41.6478C12.0741 43.867 12.3007 46.1671 12.7264 48.5248C6.1586 52.145 2.99315 58.82 3.00002 65.2803C2.99086 71.9011 6.33484 78.4676 12.7859 81.4046C14.2828 84.2505 16.7662 86.2885 19.7806 86.6994C20.117 90.9474 20.9124 95.5821 22.4333 99.6316C24.5139 105.232 28.2538 110.001 34.2963 110.016C36.3712 110.012 38.636 109.441 41.1033 108.244C44.2894 111.9 48.8956 114.978 54.1668 115C59.4197 114.977 64.0134 111.907 67.1971 108.277C69.6416 109.454 71.8847 110.012 73.9412 110.016C79.9803 110.001 83.7202 105.231 85.803 99.6316C87.324 95.5832 88.1216 90.9497 88.4581 86.7017C93.4397 86.0277 96.9908 80.9222 97 75.0366C96.992 69.7546 94.1241 65.1222 89.9367 63.7362ZM5.49942 65.2803C5.50858 59.839 8.02858 54.3342 13.2803 51.1191C14.2714 55.1674 15.8804 59.3878 18.2333 63.7628C14.086 65.1788 11.2535 69.788 11.2455 75.0366C11.2467 75.9795 11.3485 76.8992 11.5236 77.789C7.58111 74.9558 5.50743 70.2162 5.49942 65.2803ZM15.9102 81.6597C14.5941 80.0059 13.7415 77.6575 13.7449 75.0366C13.7426 72.4169 14.5941 70.0662 15.9102 68.4159C16.9104 67.1649 18.1441 66.3351 19.4899 65.9981L19.578 66.1493V81.8686L19.5769 81.8743C19.5769 82.5933 19.5952 83.3457 19.6238 84.1155C18.2242 83.8004 16.9436 82.9522 15.9102 81.6597ZM86.1944 64.4333C86.1899 64.476 86.1704 64.5129 86.1704 64.5567C86.1704 64.6006 86.191 64.6364 86.1944 64.6779L86.1612 81.8686L86.1624 81.8743C86.1647 86.9129 85.4334 93.5336 83.4639 98.7326C81.4497 103.994 78.4547 107.504 73.9412 107.491C72.1525 107.493 70.0158 106.944 67.4947 105.607C67.3586 105.531 67.2096 105.48 67.0552 105.458C66.9731 105.442 66.8895 105.435 66.8057 105.436C66.7806 105.438 66.7554 105.441 66.7302 105.445C66.5222 105.456 66.3206 105.522 66.1445 105.634C65.9685 105.747 65.8238 105.903 65.7243 106.087C65.7105 106.112 65.7128 106.14 65.7002 106.165C62.8346 109.634 58.5728 112.498 54.1668 112.476C49.6075 112.5 45.2106 109.453 42.3496 105.821C42.2474 105.691 42.1208 105.583 41.9772 105.503C41.8336 105.423 41.6757 105.373 41.5127 105.354C41.3496 105.336 41.1845 105.35 41.0269 105.396C40.8692 105.442 40.7222 105.519 40.5941 105.622C40.5586 105.65 40.5414 105.693 40.5094 105.724C38.0912 106.971 36.029 107.492 34.2952 107.489C29.7782 107.503 26.7844 103.993 24.7691 98.7314C22.8018 93.5313 22.0706 86.9117 22.0751 81.8732V61.2712C22.2399 61.2735 22.4024 61.2793 22.5672 61.2793H22.6233C36.7477 61.2793 50.1659 52.8328 54.3156 39.0108C58.3142 52.8051 71.2232 61.2816 85.3224 61.2816H85.3888C85.6588 61.2816 85.9301 61.2735 86.2001 61.2666L86.1944 64.4333ZM87.4785 46.496C87.3143 46.4954 87.1516 46.5274 86.9997 46.5904C86.8478 46.6533 86.7098 46.7459 86.5935 46.8628C86.4771 46.9796 86.3848 47.1185 86.3219 47.2714C86.2589 47.4243 86.2265 47.5883 86.2265 47.7539L86.2047 58.7484C85.9312 58.7542 85.6554 58.7611 85.3876 58.7611C70.0227 58.7277 56.4763 48.2028 55.5836 31.5742C55.5802 31.5107 55.5504 31.4576 55.5378 31.3976C55.5207 31.3145 55.5092 31.2326 55.4749 31.1553C55.444 31.0802 55.3982 31.0156 55.3524 30.9487C55.3067 30.8817 55.2678 30.8171 55.2117 30.7606C55.1545 30.7029 55.0892 30.6613 55.0217 30.6163C54.9553 30.5713 54.8935 30.5251 54.818 30.494C54.7436 30.4617 54.6646 30.449 54.5845 30.4328C54.5227 30.4201 54.4678 30.389 54.4037 30.3855C54.3797 30.3843 54.3568 30.3959 54.3316 30.3959C54.3087 30.3959 54.2904 30.3855 54.2675 30.3867C54.2069 30.389 54.1554 30.419 54.0993 30.4305C54.0135 30.4478 53.9311 30.4605 53.8521 30.494C53.7766 30.5263 53.7136 30.5713 53.6461 30.6175C53.5809 30.6625 53.5168 30.7029 53.4607 30.7594C53.4024 30.8171 53.3612 30.8841 53.3165 30.9521C53.2719 31.0191 53.2273 31.0814 53.1964 31.1564C53.1643 31.2314 53.1517 31.311 53.1346 31.393C53.1208 31.4553 53.0911 31.5095 53.0876 31.5753C52.211 48.1612 37.9779 58.7357 22.5672 58.7623C22.4047 58.7623 22.2399 58.7565 22.0751 58.7542V47.7562C22.0751 47.4219 21.9435 47.1014 21.7091 46.8651C21.4747 46.6287 21.1569 46.496 20.8254 46.496C20.494 46.496 20.1761 46.6287 19.9418 46.8651C19.7074 47.1014 19.5757 47.4219 19.5757 47.7562V60.9169C16.0887 53.9361 14.5712 47.4746 14.5712 41.649C14.5781 31.2707 19.3423 22.815 26.6917 16.8532C34.0389 10.8995 43.985 7.51928 54.1485 7.52159C64.359 7.51928 74.3223 10.3421 81.6454 15.7799C88.9696 21.2351 93.7098 29.1945 93.7247 39.8729C93.7247 45.8658 92.198 52.7405 88.6984 60.4795L88.7224 47.7596C88.7236 47.5941 88.6924 47.43 88.6304 47.2767C88.5684 47.1235 88.477 46.9841 88.3613 46.8666C88.2457 46.7492 88.1082 46.6559 87.9566 46.5923C87.8051 46.5287 87.6426 46.496 87.4785 46.496ZM92.3354 81.6597C91.2997 82.9557 90.0168 83.805 88.6149 84.1166C88.6435 83.3469 88.6606 82.5956 88.6606 81.8755L88.6904 66.1932L88.7865 66.0062C90.1209 66.349 91.342 67.1741 92.3354 68.4159C93.6514 70.0685 94.504 72.4169 94.5006 75.0366C94.5029 77.6563 93.6514 80.0071 92.3354 81.6597Z" fill="#F1F1F1"/>
<path d="M89.9367 63.7362C94.2832 54.8489 96.2264 46.8837 96.2264 39.8706C96.2435 28.4075 91.0021 19.5629 83.132 13.7488C75.2607 7.91858 64.811 5.00231 54.1508 5C43.4437 5.00231 32.978 8.53599 25.1284 14.8844C17.2823 21.2235 12.0672 30.4617 12.0741 41.6478C12.0741 43.867 12.3007 46.1671 12.7264 48.5248C6.1586 52.145 2.99315 58.82 3.00002 65.2803C2.99086 71.9011 6.33484 78.4676 12.7859 81.4046C14.2828 84.2505 16.7662 86.2885 19.7806 86.6994C20.117 90.9474 20.9124 95.5821 22.4333 99.6316C24.5139 105.232 28.2538 110.001 34.2963 110.016C36.3712 110.012 38.636 109.441 41.1033 108.244C44.2894 111.9 48.8956 114.978 54.1668 115C59.4197 114.977 64.0134 111.907 67.1971 108.277C69.6416 109.454 71.8847 110.012 73.9412 110.016C79.9803 110.001 83.7202 105.231 85.803 99.6316C87.324 95.5832 88.1216 90.9497 88.4581 86.7017C93.4397 86.0277 96.9908 80.9222 97 75.0366C96.992 69.7546 94.1241 65.1222 89.9367 63.7362ZM5.49942 65.2803C5.50858 59.839 8.02858 54.3342 13.2803 51.1191C14.2714 55.1674 15.8804 59.3878 18.2333 63.7628C14.086 65.1788 11.2535 69.788 11.2455 75.0366C11.2467 75.9795 11.3485 76.8992 11.5236 77.789C7.58111 74.9558 5.50743 70.2162 5.49942 65.2803ZM15.9102 81.6597C14.5941 80.0059 13.7415 77.6575 13.7449 75.0366C13.7426 72.4169 14.5941 70.0662 15.9102 68.4159C16.9104 67.1649 18.1441 66.3351 19.4899 65.9981L19.578 66.1493V81.8686L19.5769 81.8743C19.5769 82.5933 19.5952 83.3457 19.6238 84.1155C18.2242 83.8004 16.9436 82.9522 15.9102 81.6597ZM86.1944 64.4333C86.1899 64.476 86.1704 64.5129 86.1704 64.5567C86.1704 64.6006 86.191 64.6364 86.1944 64.6779L86.1612 81.8686L86.1624 81.8743C86.1647 86.9129 85.4334 93.5336 83.4639 98.7326C81.4497 103.994 78.4547 107.504 73.9412 107.491C72.1525 107.493 70.0158 106.944 67.4947 105.607C67.3586 105.531 67.2096 105.48 67.0552 105.458C66.9731 105.442 66.8895 105.435 66.8057 105.436C66.7806 105.438 66.7554 105.441 66.7302 105.445C66.5222 105.456 66.3206 105.522 66.1445 105.634C65.9685 105.747 65.8238 105.903 65.7243 106.087C65.7105 106.112 65.7128 106.14 65.7002 106.165C62.8346 109.634 58.5728 112.498 54.1668 112.476C49.6075 112.5 45.2106 109.453 42.3496 105.821C42.2474 105.691 42.1208 105.583 41.9772 105.503C41.8336 105.423 41.6757 105.373 41.5127 105.354C41.3496 105.336 41.1845 105.35 41.0269 105.396C40.8692 105.442 40.7222 105.519 40.5941 105.622C40.5586 105.65 40.5414 105.693 40.5094 105.724C38.0912 106.971 36.029 107.492 34.2952 107.489C29.7782 107.503 26.7844 103.993 24.7691 98.7314C22.8018 93.5313 22.0706 86.9117 22.0751 81.8732V61.2712C22.2399 61.2735 22.4024 61.2793 22.5672 61.2793H22.6233C36.7477 61.2793 50.1659 52.8328 54.3156 39.0108C58.3142 52.8051 71.2232 61.2816 85.3224 61.2816H85.3888C85.6588 61.2816 85.9301 61.2735 86.2001 61.2666L86.1944 64.4333ZM87.4785 46.496C87.3143 46.4954 87.1516 46.5274 86.9997 46.5904C86.8478 46.6533 86.7098 46.7459 86.5935 46.8628C86.4771 46.9796 86.3848 47.1185 86.3219 47.2714C86.2589 47.4243 86.2265 47.5883 86.2265 47.7539L86.2047 58.7484C85.9312 58.7542 85.6554 58.7611 85.3876 58.7611C70.0227 58.7277 56.4763 48.2028 55.5836 31.5742C55.5802 31.5107 55.5504 31.4576 55.5378 31.3976C55.5207 31.3145 55.5092 31.2326 55.4749 31.1553C55.444 31.0802 55.3982 31.0156 55.3524 30.9487C55.3067 30.8817 55.2678 30.8171 55.2117 30.7606C55.1545 30.7029 55.0892 30.6613 55.0217 30.6163C54.9553 30.5713 54.8935 30.5251 54.818 30.494C54.7436 30.4617 54.6646 30.449 54.5845 30.4328C54.5227 30.4201 54.4678 30.389 54.4037 30.3855C54.3797 30.3843 54.3568 30.3959 54.3316 30.3959C54.3087 30.3959 54.2904 30.3855 54.2675 30.3867C54.2069 30.389 54.1554 30.419 54.0993 30.4305C54.0135 30.4478 53.9311 30.4605 53.8521 30.494C53.7766 30.5263 53.7136 30.5713 53.6461 30.6175C53.5809 30.6625 53.5168 30.7029 53.4607 30.7594C53.4024 30.8171 53.3612 30.8841 53.3165 30.9521C53.2719 31.0191 53.2273 31.0814 53.1964 31.1564C53.1643 31.2314 53.1517 31.311 53.1346 31.393C53.1208 31.4553 53.0911 31.5095 53.0876 31.5753C52.211 48.1612 37.9779 58.7357 22.5672 58.7623C22.4047 58.7623 22.2399 58.7565 22.0751 58.7542V47.7562C22.0751 47.4219 21.9435 47.1014 21.7091 46.8651C21.4747 46.6287 21.1569 46.496 20.8254 46.496C20.494 46.496 20.1761 46.6287 19.9418 46.8651C19.7074 47.1014 19.5757 47.4219 19.5757 47.7562V60.9169C16.0887 53.9361 14.5712 47.4746 14.5712 41.649C14.5781 31.2707 19.3423 22.815 26.6917 16.8532C34.0389 10.8995 43.985 7.51928 54.1485 7.52159C64.359 7.51928 74.3223 10.3421 81.6454 15.7799C88.9696 21.2351 93.7098 29.1945 93.7247 39.8729C93.7247 45.8658 92.198 52.7405 88.6984 60.4795L88.7224 47.7596C88.7236 47.5941 88.6924 47.43 88.6304 47.2767C88.5684 47.1235 88.477 46.9841 88.3613 46.8666C88.2457 46.7492 88.1082 46.6559 87.9566 46.5923C87.8051 46.5287 87.6426 46.496 87.4785 46.496ZM92.3354 81.6597C91.2997 82.9557 90.0168 83.805 88.6149 84.1166C88.6435 83.3469 88.6606 82.5956 88.6606 81.8755L88.6904 66.1932L88.7865 66.0062C90.1209 66.349 91.342 67.1741 92.3354 68.4159C93.6514 70.0685 94.504 72.4169 94.5006 75.0366C94.5029 77.6563 93.6514 80.0071 92.3354 81.6597Z" stroke="#F1F1F1" stroke-width="2" mask="url(#path-5-outside-1_67_105)"/>
<path d="M17.5 83.5C17.9295 83.5 18.1837 83.1648 18.3008 82.9307C18.4328 82.6667 18.5 82.3369 18.5 82C18.5 81.6631 18.4328 81.3333 18.3008 81.0693C18.1837 80.8352 17.9295 80.5 17.5 80.5C17.0705 80.5 16.8163 80.8352 16.6992 81.0693C16.5672 81.3333 16.5 81.6631 16.5 82C16.5 82.3369 16.5672 82.6667 16.6992 82.9307C16.8163 83.1648 17.0705 83.5 17.5 83.5Z" fill="#F1F1F1" stroke="#F1F1F1"/>
<path d="M90 82.5C90.8284 82.5 91.5 81.8284 91.5 81C91.5 80.1716 90.8284 79.5 90 79.5C89.1716 79.5 88.5 80.1716 88.5 81C88.5 81.8284 89.1716 82.5 90 82.5Z" fill="#F1F1F1" stroke="#F1F1F1"/>
</svg>
