<svg width="64" height="64" viewBox="0 0 64 64" fill="none" xmlns="http://www.w3.org/2000/svg">
<path d="M0 4.58455C0 2.05325 2.10405 0 4.69966 0H59.3003C61.8959 0 64 2.05326 64 4.58456V59.4154C64 61.9476 61.8959 64 59.3003 64L4.69966 64C2.10405 64 0 61.9476 0 59.4154V4.58455ZM19.7735 53.5746V24.675H10.1678V53.5746H19.7735ZM14.9706 20.7293C18.3203 20.7293 20.4052 18.5101 20.4052 15.7368C20.3428 12.9011 18.3203 10.7435 15.0342 10.7435C11.7484 10.7435 9.6 12.9011 9.6 15.7368C9.6 18.5101 11.6845 20.7293 14.908 20.7293H14.9706ZM34.6056 53.5746V37.4359C34.6056 36.5722 34.668 35.7093 34.9217 35.0919C35.6161 33.3661 37.1966 31.5788 39.8502 31.5788C43.326 31.5788 44.7164 34.229 44.7164 38.114V53.5746H54.3213V37.004C54.3213 28.1274 49.5823 23.9969 43.2626 23.9969C38.1671 23.9969 35.8824 26.7975 34.6059 28.7667V28.8662H34.5417C34.5628 28.8333 34.5842 28.8001 34.6059 28.7667V24.675H25.0003C25.1263 27.3868 25.0003 53.5746 25.0003 53.5746H34.6056Z" fill="#1F1F1F"/>
</svg>
