<svg width="32" height="32" viewBox="0 0 32 32" fill="none" xmlns="http://www.w3.org/2000/svg">
<path d="M5.33341 26.6667C4.60008 26.6667 3.9723 26.4056 3.45008 25.8833C2.92786 25.3611 2.66675 24.7333 2.66675 24V7.99999C2.66675 7.26666 2.92786 6.63888 3.45008 6.11666C3.9723 5.59444 4.60008 5.33333 5.33341 5.33333H26.6667C27.4001 5.33333 28.0279 5.59444 28.5501 6.11666C29.0723 6.63888 29.3334 7.26666 29.3334 7.99999V24C29.3334 24.7333 29.0723 25.3611 28.5501 25.8833C28.0279 26.4056 27.4001 26.6667 26.6667 26.6667H5.33341ZM16.0001 17.3333L5.33341 10.6667V24H26.6667V10.6667L16.0001 17.3333ZM16.0001 14.6667L26.6667 7.99999H5.33341L16.0001 14.6667ZM5.33341 10.6667V7.99999V24V10.6667Z" fill="#6FC259"/>
</svg>
