<svg width="38" height="48" viewBox="0 0 38 48" fill="none" xmlns="http://www.w3.org/2000/svg">
<path d="M19 24C20.3062 24 21.4245 23.53 22.3547 22.59C23.2849 21.65 23.75 20.52 23.75 19.2C23.75 17.88 23.2849 16.75 22.3547 15.81C21.4245 14.87 20.3062 14.4 19 14.4C17.6938 14.4 16.5755 14.87 15.6453 15.81C14.7151 16.75 14.25 17.88 14.25 19.2C14.25 20.52 14.7151 21.65 15.6453 22.59C16.5755 23.53 17.6938 24 19 24ZM19 41.64C23.8292 37.16 27.4115 33.09 29.7469 29.43C32.0823 25.77 33.25 22.52 33.25 19.68C33.25 15.32 31.8745 11.75 29.1234 8.97C26.3724 6.19 22.9979 4.8 19 4.8C15.0021 4.8 11.6276 6.19 8.87656 8.97C6.12552 11.75 4.75 15.32 4.75 19.68C4.75 22.52 5.91771 25.77 8.25313 29.43C10.5885 33.09 14.1708 37.16 19 41.64ZM19 48C12.6271 42.52 7.86719 37.43 4.72031 32.73C1.57344 28.03 0 23.68 0 19.68C0 13.68 1.9099 8.9 5.72969 5.34C9.54948 1.78 13.9729 0 19 0C24.0271 0 28.4505 1.78 32.2703 5.34C36.0901 8.9 38 13.68 38 19.68C38 23.68 36.4266 28.03 33.2797 32.73C30.1328 37.43 25.3729 42.52 19 48Z" fill="#1F1F1F"/>
</svg>
