<svg width="48" height="48" viewBox="0 0 48 48" fill="none" xmlns="http://www.w3.org/2000/svg">
<path d="M40.8039 6.97933C36.3221 2.4747 30.3463 0 23.9828 0C10.8795 0 0.205274 10.6743 0.19387 23.7776C0.19387 27.9743 1.28866 32.057 3.36421 35.6721L0 48L12.6129 44.6928C16.0912 46.5859 20.0028 47.5895 23.9828 47.5895H23.9943C37.0976 47.5895 47.7718 36.9152 47.7832 23.8004C47.7718 17.4483 45.2971 11.4726 40.8039 6.97933ZM23.9828 43.5638C20.4248 43.5638 16.9465 42.6058 13.913 40.804L13.1946 40.3706L5.71346 42.3321L7.70918 35.0335L7.24161 34.2808C5.2573 31.1333 4.21952 27.4954 4.21952 23.7662C4.21952 12.8867 13.0919 4.01426 23.9943 4.01426C29.2744 4.01426 34.2351 6.0784 37.9757 9.80756C41.7048 13.5481 43.7576 18.5089 43.7576 23.789C43.7462 34.7028 34.8738 43.5638 23.9828 43.5638ZM34.8282 28.7612C34.2351 28.4647 31.3157 27.0278 30.7683 26.8225C30.2209 26.6287 29.8218 26.526 29.434 27.119C29.0349 27.712 27.8945 29.0577 27.5523 29.4455C27.2102 29.8446 26.8567 29.8902 26.2637 29.5937C25.6707 29.2972 23.7548 28.67 21.4853 26.6401C19.7177 25.0663 18.5317 23.1162 18.1782 22.5232C17.836 21.9302 18.1439 21.6108 18.4405 21.3143C18.7027 21.052 19.0335 20.6187 19.33 20.2766C19.6265 19.9344 19.7291 19.6835 19.923 19.2844C20.1169 18.8852 20.0256 18.5431 19.8774 18.2466C19.7291 17.9501 18.5431 15.0192 18.0413 13.8332C17.5623 12.67 17.072 12.8297 16.707 12.8182C16.3649 12.7954 15.9658 12.7954 15.5666 12.7954C15.1675 12.7954 14.5288 12.9437 13.9814 13.5367C13.434 14.1297 11.9059 15.5666 11.9059 18.4975C11.9059 21.4284 14.0385 24.2452 14.335 24.6443C14.6315 25.0435 18.5203 31.0421 24.4846 33.6194C25.8987 34.2352 27.0049 34.6001 27.8717 34.8738C29.2972 35.33 30.5858 35.2616 31.6122 35.1133C32.7526 34.9423 35.1247 33.6764 35.6264 32.2851C36.1168 30.8938 36.1168 29.7078 35.9686 29.4569C35.8203 29.206 35.4212 29.0577 34.8282 28.7612Z" fill="#1F1F1F"/>
</svg>
