<svg xmlns="http://www.w3.org/2000/svg" version="1.1" xmlns:xlink="http://www.w3.org/1999/xlink" xmlns:svgjs="http://svgjs.dev/svgjs" width="2000" height="444" viewBox="0 0 2000 444"><g transform="matrix(1,0,0,1,-1.2121212121212466,-1.7758303610206667)"><svg viewBox="0 0 396 88" data-background-color="#e8e7d5" preserveAspectRatio="xMidYMid meet" height="444" width="2000" xmlns="http://www.w3.org/2000/svg" xmlns:xlink="http://www.w3.org/1999/xlink"><g id="tight-bounds" transform="matrix(1,0,0,1,0.2400000000000091,0.3519663778599522)"><svg viewBox="0 0 395.52 87.29603584382521" height="87.29603584382521" width="395.52"><g><svg viewBox="0 0 538.2531191069061 118.79895726791868" height="87.29603584382521" width="395.52"><g transform="matrix(1,0,0,1,142.73311910690603,34.05365584914921)"><svg viewBox="0 0 395.52 50.691645569620256" height="50.691645569620256" width="395.52"><g id="textblocktransform"><svg viewBox="0 0 395.52 50.691645569620256" height="50.691645569620256" width="395.52" id="textblock"><g><svg viewBox="0 0 395.52 50.691645569620256" height="50.691645569620256" width="395.52"><g transform="matrix(1,0,0,1,0,0)"><svg width="395.52" viewBox="3.93 -39.99 370.29 47.46" height="50.691645569620256" data-palette-color="#6fc259"><path d="M11.18-39.99L11.18 5 3.93 5 3.93-39.99 11.18-39.99ZM62.03-10.74L62.03-10.74Q62.03-8.47 61.46-6.74 60.88-5 59.85-3.74 58.81-2.47 57.39-1.61 55.98-0.76 54.3-0.24 52.63 0.27 50.76 0.49 48.9 0.71 46.97 0.71L46.97 0.71Q44.43 0.71 42.28 0.33 40.13-0.05 38.24-0.87 36.35-1.68 34.6-2.98 32.86-4.27 31.12-6.13L31.12-6.13 36.1-11.18Q36.79-9.5 37.98-8.07 39.18-6.64 40.61-5.62 42.04-4.59 43.57-4 45.11-3.42 46.48-3.42L46.48-3.42Q48.09-3.42 49.51-3.65 50.92-3.88 51.97-4.42 53.02-4.96 53.62-5.85 54.22-6.74 54.22-8.08L54.22-8.08Q54.22-9.11 53.75-9.84 53.29-10.57 52.55-11.1 51.8-11.62 50.85-11.99 49.9-12.35 48.91-12.61 47.92-12.87 46.97-13.07 46.02-13.28 45.28-13.5L45.28-13.5Q43.84-13.92 42.28-14.39 40.72-14.87 39.2-15.48 37.69-16.09 36.34-16.88 34.98-17.68 33.95-18.76 32.93-19.85 32.32-21.28 31.71-22.71 31.71-24.56L31.71-24.56Q31.71-26.78 32.26-28.5 32.81-30.22 33.81-31.49 34.81-32.76 36.18-33.63 37.54-34.5 39.18-35.02 40.82-35.55 42.66-35.78 44.5-36.01 46.43-36.01L46.43-36.01Q49.07-36.01 51.23-35.52 53.39-35.03 55.22-34.13 57.05-33.23 58.58-31.97 60.1-30.71 61.45-29.17L61.45-29.17 56.46-24.12Q55.88-25.88 54.84-27.29 53.8-28.71 52.53-29.72 51.26-30.74 49.87-31.29 48.48-31.84 47.19-31.84L47.19-31.84Q45.5-31.84 44.09-31.6 42.67-31.37 41.66-30.85 40.64-30.32 40.08-29.43 39.52-28.54 39.52-27.22L39.52-27.22Q39.52-26.17 39.94-25.44 40.35-24.71 41.05-24.19 41.74-23.68 42.62-23.35 43.5-23.02 44.44-22.78 45.38-22.53 46.3-22.35 47.21-22.17 47.97-21.95L47.97-21.95Q49.43-21.53 51.04-21.07 52.66-20.61 54.22-19.98 55.78-19.36 57.2-18.55 58.61-17.75 59.69-16.64 60.76-15.53 61.4-14.07 62.03-12.62 62.03-10.74ZM93.3-4.49L93.3 0 68.06 0 68.06-35.16 93.3-35.16 93.3-30.66 77.75-30.66 77.75-19.8 89.76-19.8 89.76-15.33 77.75-15.33 77.75-4.49 93.3-4.49ZM103.8-24.12L103.8 0 99.31 0 99.31-35.16 105.61-35.16 126.97-11.01 126.97-35.16 131.44-35.16 131.44 0 125.14 0 103.8-24.12ZM149.08-35.16L149.08 0 139.39 0 139.39-35.16 149.08-35.16ZM193.74-17.63L193.74-17.63Q193.74-13.38 192.27-9.97 190.81-6.57 188.22-4.2 185.63-1.83 182.09-0.56 178.55 0.71 174.42 0.71L174.42 0.71Q170.3 0.71 166.76-0.56 163.22-1.83 160.63-4.2 158.04-6.57 156.58-9.97 155.11-13.38 155.11-17.63L155.11-17.63Q155.11-21.95 156.56-25.35 158.02-28.76 160.59-31.12 163.17-33.47 166.71-34.73 170.25-35.99 174.42-35.99L174.42-35.99Q178.6-35.99 182.14-34.73 185.68-33.47 188.25-31.12 190.83-28.76 192.28-25.35 193.74-21.95 193.74-17.63ZM183.87-17.63L183.87-17.63Q183.87-19.24 183.73-20.92 183.58-22.61 183.19-24.19 182.8-25.78 182.13-27.17 181.45-28.56 180.4-29.6 179.36-30.64 177.88-31.24 176.4-31.84 174.42-31.84L174.42-31.84Q172.42-31.84 170.93-31.24 169.44-30.64 168.39-29.61 167.34-28.59 166.68-27.2 166.03-25.81 165.65-24.23 165.27-22.66 165.12-20.96 164.98-19.26 164.98-17.63L164.98-17.63Q164.98-16.02 165.12-14.33 165.27-12.65 165.66-11.07 166.05-9.5 166.72-8.11 167.39-6.71 168.44-5.68 169.49-4.64 170.97-4.03 172.45-3.42 174.42-3.42L174.42-3.42Q176.35-3.42 177.79-4.04 179.23-4.66 180.28-5.73 181.33-6.79 182.03-8.19 182.72-9.59 183.13-11.17 183.53-12.74 183.7-14.4 183.87-16.06 183.87-17.63ZM209.46-13.13L209.46 0 199.76 0 199.76-35.16 217.05-35.16Q219.49-35.16 221.76-34.58 224.03-34.01 225.78-32.78 227.52-31.54 228.56-29.59 229.6-27.64 229.6-24.85L229.6-24.85Q229.6-22.68 228.68-20.76 227.77-18.85 226.24-17.35 224.71-15.84 222.74-14.86 220.76-13.87 218.63-13.55L218.63-13.55Q219.59-11.94 220.62-10.5 221.66-9.06 222.72-7.8 223.79-6.54 224.84-5.48 225.89-4.42 226.84-3.54L226.84-3.54Q229.08-1.49 231.28 0L231.28 0 219.2 0Q217.73-1.39 216.41-3.34L216.41-3.34Q215.29-5 214.15-7.46 213.02-9.91 212.41-13.13L212.41-13.13 209.46-13.13ZM219.76-24.85L219.76-24.85Q219.76-28.39 218.04-30.05 216.32-31.71 212.87-31.71L212.87-31.71 209.46-31.71 209.46-16.46 212.87-16.46Q214.7-16.46 216.01-17.15 217.32-17.85 218.15-19.01 218.98-20.17 219.37-21.68 219.76-23.19 219.76-24.85ZM267.46-26.44L267.46-26.44 263.29-24.68Q262.8-26.27 261.98-27.59 261.16-28.91 260.03-29.85 258.89-30.79 257.45-31.31 256.01-31.84 254.3-31.84L254.3-31.84Q252.47-31.84 250.94-31.24 249.42-30.64 248.21-29.59 247-28.54 246.1-27.15 245.19-25.76 244.58-24.18 243.97-22.61 243.68-20.92 243.39-19.24 243.39-17.63L243.39-17.63Q243.39-15.06 243.99-12.52 244.58-9.99 245.89-7.96 247.2-5.93 249.27-4.68 251.35-3.42 254.3-3.42L254.3-3.42Q255.86-3.42 257.26-3.94 258.65-4.47 259.78-5.38 260.92-6.3 261.77-7.54 262.63-8.79 263.14-10.23L263.14-10.23 267.36-8.54Q266.44-6.23 264.82-4.48 263.21-2.73 261.15-1.59 259.09-0.44 256.73 0.13 254.37 0.71 251.98 0.71L251.98 0.71Q249.39 0.71 247.01 0.07 244.63-0.56 242.58-1.73 240.53-2.91 238.86-4.57 237.19-6.23 236-8.25 234.82-10.28 234.17-12.66 233.52-15.04 233.52-17.63L233.52-17.63Q233.52-20.21 234.17-22.6 234.82-24.98 236-27.01 237.19-29.05 238.86-30.71 240.53-32.37 242.58-33.54 244.63-34.72 247.01-35.35 249.39-35.99 251.98-35.99L251.98-35.99Q254.47-35.99 256.85-35.4 259.23-34.81 261.28-33.63 263.33-32.45 264.93-30.65 266.53-28.86 267.46-26.44ZM306.59-16.82L306.59-16.82 306.59-16.36Q306.54-14.31 306.17-12.11 305.79-9.91 305.1-7.71 304.42-5.52 303.47-3.37 302.52-1.22 301.33 0.74 300.15 2.71 298.78 4.43 297.41 6.15 295.9 7.47L295.9 7.47 292.26 5.37Q293.12 3.93 293.81 2.23 294.51 0.54 295.07-1.32 295.63-3.17 296.03-5.13 296.44-7.08 296.71-9.01 296.97-10.94 297.11-12.81 297.24-14.67 297.24-16.36L297.24-16.36Q297.24-17.68 297.23-19.35 297.22-21.02 297.04-22.75 296.85-24.49 296.44-26.14 296.02-27.78 295.2-29.08 294.39-30.37 293.1-31.15 291.82-31.93 289.92-31.93L289.92-31.93Q288.23-31.93 287.03-31.36 285.82-30.79 284.98-29.82 284.13-28.86 283.63-27.59 283.13-26.32 282.85-24.91 282.57-23.51 282.48-22.08 282.4-20.65 282.4-19.38L282.4-19.38 282.4-12.57 292.92-12.57 292.92-8.54 282.4-8.54 282.4 0 272.71 0 272.71-17.87Q272.71-21.7 273.93-25 275.15-28.3 277.38-30.73 279.62-33.15 282.75-34.53 285.89-35.91 289.75-35.91L289.75-35.91Q292.36-35.91 294.64-35.17 296.93-34.42 298.81-33.12 300.69-31.81 302.16-30.02 303.64-28.22 304.63-26.1 305.62-23.97 306.13-21.61 306.64-19.24 306.59-16.82ZM322.58-13.13L322.58 0 312.89 0 312.89-35.16 330.18-35.16Q332.62-35.16 334.89-34.58 337.16-34.01 338.9-32.78 340.65-31.54 341.69-29.59 342.72-27.64 342.72-24.85L342.72-24.85Q342.72-22.68 341.81-20.76 340.89-18.85 339.37-17.35 337.84-15.84 335.86-14.86 333.89-13.87 331.76-13.55L331.76-13.55Q332.71-11.94 333.75-10.5 334.79-9.06 335.85-7.8 336.91-6.54 337.96-5.48 339.01-4.42 339.97-3.54L339.97-3.54Q342.21-1.49 344.41 0L344.41 0 332.32 0Q330.86-1.39 329.54-3.34L329.54-3.34Q328.42-5 327.28-7.46 326.15-9.91 325.54-13.13L325.54-13.13 322.58-13.13ZM332.89-24.85L332.89-24.85Q332.89-28.39 331.16-30.05 329.44-31.71 326-31.71L326-31.71 322.58-31.71 322.58-16.46 326-16.46Q327.83-16.46 329.14-17.15 330.44-17.85 331.27-19.01 332.1-20.17 332.49-21.68 332.89-23.19 332.89-24.85ZM374.22-4.49L374.22 0 348.97 0 348.97-35.16 374.22-35.16 374.22-30.66 358.66-30.66 358.66-19.8 370.68-19.8 370.68-15.33 358.66-15.33 358.66-4.49 374.22-4.49Z" opacity="1" transform="matrix(1,0,0,1,0,0)" fill="#6fc259" class="wordmark-text-0" data-fill-palette-color="primary" id="text-0"></path></svg></g></svg></g></svg></g></svg></g><g><svg viewBox="0 0 118.79895726791868 118.79895726791868" height="118.79895726791868" width="118.79895726791868"><g><svg></svg></g><g id="icon-0"><svg viewBox="0 0 118.79895726791868 118.79895726791868" height="118.79895726791868" width="118.79895726791868"><g><path d="M0 59.399c0-32.805 26.594-59.399 59.399-59.399 32.805 0 59.399 26.594 59.4 59.399 0 32.805-26.594 59.399-59.4 59.4-32.805 0-59.399-26.594-59.399-59.4zM59.399 114.228c30.281 0 54.828-24.547 54.829-54.829 0-30.281-24.547-54.828-54.829-54.828-30.281 0-54.828 24.547-54.828 54.828 0 30.281 24.547 54.828 54.828 54.829z" data-fill-palette-color="accent" fill="#398378" stroke="transparent"></path></g><g transform="matrix(1,0,0,1,33.43769286735229,29.272143656901328)"><svg viewBox="0 0 51.9235715332141 60.254669954116025" height="60.254669954116025" width="51.9235715332141"><g><svg xmlns="http://www.w3.org/2000/svg" xmlns:xlink="http://www.w3.org/1999/xlink" xmlns:a="http://ns.adobe.com/AdobeSVGViewerExtensions/3.0/" version="1.1" x="0" y="0" viewBox="-0.000016382799636408944 0 82.13801638279965 95.317" enable-background="new -8.953 -2.341 100 100" xml:space="preserve" height="60.254669954116025" width="51.9235715332141" class="icon-dxe-0" data-fill-palette-color="accent" id="dxe-0"><path d="M36.897 82.131V82.133A1.09 1.09 0 0 1 36.455 80.653 1.09 1.09 0 0 1 37.935 80.209C40.229 81.446 42.465 82.04 44.695 82.043 46.921 82.04 49.161 81.446 51.457 80.211A1.093 1.093 0 0 1 52.938 80.653C53.222 81.183 53.024 81.846 52.494 82.132 49.933 83.513 47.319 84.228 44.695 84.228 42.071 84.227 39.456 83.514 36.897 82.131" fill="#398378" data-fill-palette-color="accent"></path><path d="M28.167 85.285A1 1 0 0 1 28.572 83.93C32.372 81.857 34.66 78.683 35.336 73.759A1 1 0 1 1 37.319 74.023C36.616 79.467 33.839 83.385 29.522 85.692A1 1 0 0 1 28.167 85.285" fill="#398378" data-fill-palette-color="accent"></path><path d="M59.852 85.691C55.536 83.384 52.759 79.466 52.055 74.022V74.024A1 1 0 0 1 52.914 72.898 1 1 0 0 1 54.037 73.757C54.715 78.681 57.001 81.856 60.804 83.931A1 1 0 0 1 60.324 85.81 1 1 0 0 1 59.852 85.691" fill="#398378" data-fill-palette-color="accent"></path><path fill-rule="evenodd" clip-rule="evenodd" d="M44.704 47.772C46.356 47.772 47.704 46.425 47.704 44.772S46.356 41.772 44.704 41.772 41.704 43.12 41.704 44.772 43.052 47.772 44.704 47.772" fill="#398378" data-fill-palette-color="accent"></path><path d="M71.251 53.356C71.044 52.19 70.091 51.158 68.837 50.974A56.4 56.4 0 0 0 59.261 50.149 56 56 0 0 0 49.684 50.974C48.733 51.113 47.948 51.745 47.539 52.559 46.615 52.141 45.665 51.903 44.701 51.904 43.736 51.903 42.784 52.142 41.862 52.561 41.454 51.75 40.676 51.115 39.718 50.975A56 56 0 0 0 30.141 50.15C26.949 50.15 23.756 50.424 20.564 50.975 19.314 51.157 18.351 52.185 18.151 53.366 17.751 55.348 17.551 57.341 17.551 59.332 17.551 61.318 17.751 63.31 18.151 65.298 18.347 66.461 19.297 67.532 20.593 67.691 23.796 68.155 27.003 68.396 30.211 68.396 33.37 68.396 36.534 68.166 39.693 67.691 40.975 67.531 41.948 66.475 42.135 65.285 42.525 63.203 42.721 61.169 42.721 59.181 42.721 57.671 42.607 56.19 42.38 54.737 43.191 54.299 43.953 54.091 44.701 54.09 45.448 54.092 46.214 54.3 47.028 54.739A30 30 0 0 0 46.669 59.334 30 30 0 0 0 47.272 65.301C47.466 66.465 48.418 67.535 49.713 67.695 52.913 68.157 56.12 68.397 59.33 68.397 62.489 68.397 65.652 68.168 68.813 67.693 70.094 67.532 71.067 66.478 71.254 65.287 71.642 63.203 71.84 61.169 71.84 59.18S71.645 55.248 71.251 53.356M39.988 64.882C39.864 65.342 39.755 65.443 39.37 65.531 36.318 65.988 33.266 66.211 30.211 66.211 27.111 66.211 24.01 65.979 20.906 65.531 20.539 65.448 20.428 65.351 20.292 64.867A28 28 0 0 1 19.736 59.332C19.736 57.485 19.921 55.641 20.292 53.794 20.424 53.326 20.527 53.231 20.935 53.127L20.751 52.051 20.937 53.127A54 54 0 0 1 30.141 52.335C33.209 52.335 36.276 52.599 39.347 53.127 39.751 53.23 39.854 53.324 39.992 53.803 40.357 55.542 40.536 57.333 40.536 59.18 40.536 61.024 40.354 62.924 39.988 64.882M69.109 64.882C68.985 65.343 68.872 65.444 68.49 65.532A62 62 0 0 1 59.33 66.211C56.229 66.211 53.128 65.98 50.026 65.53 49.659 65.447 49.546 65.35 49.412 64.868A28 28 0 0 1 48.854 59.332C48.854 57.485 49.04 55.641 49.412 53.796 49.544 53.327 49.646 53.231 50.056 53.127A54 54 0 0 1 59.261 52.335C62.326 52.335 65.395 52.599 68.467 53.127 68.869 53.229 68.975 53.325 69.113 53.804A26.4 26.4 0 0 1 69.655 59.177C69.655 61.02 69.474 62.92 69.109 64.882" fill="#398378" data-fill-palette-color="accent"></path><path d="M75.966 50.896C79.764 43.195 81.462 36.293 81.462 30.216 81.477 20.283 76.897 12.619 70.02 7.581 63.142 2.529 54.011 0.002 44.696 0 35.34 0.002 26.195 3.064 19.336 8.565 12.48 14.058 7.923 22.063 7.929 31.756 7.929 33.679 8.127 35.672 8.499 37.715 2.76 40.852-0.006 46.636 0 52.234-0.008 57.971 2.914 63.661 8.551 66.206 9.859 68.672 12.029 70.438 14.663 70.794 14.957 74.475 15.652 78.491 16.981 82 18.799 86.853 22.067 90.985 27.347 90.998 29.16 90.995 31.139 90.5 33.295 89.463 36.079 92.631 40.104 95.298 44.71 95.317 49.3 95.297 53.314 92.637 56.096 89.491 58.232 90.511 60.192 90.995 61.989 90.998 67.266 90.985 70.534 86.852 72.354 82 73.683 78.492 74.38 74.477 74.674 70.796 79.027 70.212 82.13 65.788 82.138 60.688 82.131 56.111 79.625 52.097 75.966 50.896M2.184 52.234C2.192 47.519 4.394 42.749 8.983 39.963 9.849 43.471 11.255 47.128 13.311 50.919 9.687 52.146 7.212 56.14 7.205 60.688 7.206 61.505 7.295 62.302 7.448 63.073 4.003 60.618 2.191 56.511 2.184 52.234M11.281 66.427C10.131 64.994 9.386 62.959 9.389 60.688 9.387 58.418 10.131 56.381 11.281 54.951 12.155 53.867 13.233 53.148 14.409 52.856L14.486 52.987V66.608L14.485 66.613C14.485 67.236 14.501 67.888 14.526 68.555 13.303 68.282 12.184 67.547 11.281 66.427M72.696 51.5C72.692 51.537 72.675 51.569 72.675 51.607S72.693 51.676 72.696 51.712L72.667 66.608 72.668 66.613C72.67 70.979 72.031 76.716 70.31 81.221 68.55 85.78 65.933 88.822 61.989 88.81 60.426 88.812 58.559 88.336 56.356 87.178A1.1 1.1 0 0 0 55.972 87.049 1 1 0 0 0 55.754 87.03C55.732 87.031 55.71 87.034 55.688 87.037A1.07 1.07 0 0 0 54.809 87.594C54.797 87.615 54.799 87.64 54.788 87.661 52.284 90.667 48.56 93.149 44.71 93.13 40.726 93.151 36.884 90.51 34.384 87.363A1.09 1.09 0 0 0 32.85 87.191C32.819 87.215 32.804 87.252 32.776 87.279 30.663 88.36 28.861 88.811 27.346 88.809 23.399 88.821 20.783 85.779 19.022 81.22 17.303 76.714 16.664 70.978 16.668 66.612V48.76C16.812 48.762 16.954 48.767 17.098 48.767H17.147C29.489 48.767 41.214 41.448 44.84 29.471 48.334 41.424 59.614 48.769 71.934 48.769H71.992C72.228 48.769 72.465 48.762 72.701 48.756zM73.818 35.957A1.09 1.09 0 0 0 72.724 37.047L72.705 46.574C72.466 46.579 72.225 46.585 71.991 46.585 58.565 46.556 46.728 37.436 45.948 23.027 45.945 22.972 45.919 22.926 45.908 22.874 45.893 22.802 45.883 22.731 45.853 22.664 45.826 22.599 45.786 22.543 45.746 22.485S45.672 22.371 45.623 22.322C45.573 22.272 45.516 22.236 45.457 22.197 45.399 22.158 45.345 22.118 45.279 22.091 45.214 22.063 45.145 22.052 45.075 22.038 45.021 22.027 44.973 22 44.917 21.997 44.896 21.996 44.876 22.006 44.854 22.006 44.834 22.006 44.818 21.997 44.798 21.998 44.745 22 44.7 22.026 44.651 22.036 44.576 22.051 44.504 22.062 44.435 22.091 44.369 22.119 44.314 22.158 44.255 22.198 44.198 22.237 44.142 22.272 44.093 22.321 44.042 22.371 44.006 22.429 43.967 22.488 43.928 22.546 43.889 22.6 43.862 22.665 43.834 22.73 43.823 22.799 43.808 22.87 43.796 22.924 43.77 22.971 43.767 23.028 43.001 37.4 30.564 46.563 17.098 46.586 16.956 46.586 16.812 46.581 16.668 46.579V37.049A1.092 1.092 0 0 0 14.484 37.049V48.453C11.437 42.404 10.111 36.805 10.111 31.757 10.117 22.764 14.28 15.437 20.702 10.271 27.122 5.112 35.813 2.183 44.694 2.185 53.616 2.183 62.322 4.629 68.721 9.341 75.121 14.068 79.263 20.965 79.276 30.218 79.276 35.411 77.942 41.368 74.884 48.074L74.905 37.052A1.087 1.087 0 0 0 73.818 35.957M78.062 66.427C77.157 67.55 76.036 68.286 74.811 68.556 74.836 67.889 74.851 67.238 74.851 66.614L74.877 53.025 74.961 52.863C76.127 53.16 77.194 53.875 78.062 54.951 79.212 56.383 79.957 58.418 79.954 60.688 79.956 62.958 79.212 64.995 78.062 66.427" fill="#398378" data-fill-palette-color="accent"></path><circle fill-rule="evenodd" clip-rule="evenodd" cx="13.175" cy="66.168" r="0.99" fill="#398378" data-fill-palette-color="accent"></circle><circle fill-rule="evenodd" clip-rule="evenodd" cx="76.242" cy="66.168" r="0.99" fill="#398378" data-fill-palette-color="accent"></circle></svg></g></svg></g></svg></g></svg></g></svg></g><defs></defs></svg><rect width="395.52" height="87.29603584382521" fill="none" stroke="none" visibility="hidden"></rect></g></svg></g></svg>